<svg xmlns="http://www.w3.org/2000/svg" viewBox="0 0 200 200" fill="none">
  <!-- Outer Decorative Ring -->
  <circle cx="100" cy="100" r="92" stroke="#0FA34E" stroke-width="6" stroke-dasharray="12 6" />
  
  <!-- Outer Wheel Rim -->
  <circle cx="100" cy="100" r="82" stroke="#0FA34E" stroke-width="4" />
  
  <!-- Center Wheel Hub -->
  <circle cx="100" cy="100" r="30" stroke="#0FA34E" stroke-width="5" fill="#F6E9D2" />
  <circle cx="100" cy="100" r="14" fill="#0FA34E" />

  <!-- 24 Wheel Spokes -->
  <!-- 0 deg -->
  <line x1="100" y1="30" x2="100" y2="70" stroke="#0FA34E" stroke-width="4" transform="rotate(0 100 100)" />
  <circle cx="100" cy="50" r="4" fill="#C6FF3D" stroke="#0FA34E" stroke-width="1.5" transform="rotate(0 100 100)" />

  <!-- 15 deg -->
  <line x1="100" y1="30" x2="100" y2="70" stroke="#0FA34E" stroke-width="2" transform="rotate(15 100 100)" />

  <!-- 30 deg -->
  <line x1="100" y1="30" x2="100" y2="70" stroke="#0FA34E" stroke-width="2" transform="rotate(30 100 100)" />

  <!-- 45 deg -->
  <line x1="100" y1="30" x2="100" y2="70" stroke="#0FA34E" stroke-width="4" transform="rotate(45 100 100)" />
  <circle cx="100" cy="50" r="4" fill="#C6FF3D" stroke="#0FA34E" stroke-width="1.5" transform="rotate(45 100 100)" />

  <!-- 60 deg -->
  <line x1="100" y1="30" x2="100" y2="70" stroke="#0FA34E" stroke-width="2" transform="rotate(60 100 100)" />

  <!-- 75 deg -->
  <line x1="100" y1="30" x2="100" y2="70" stroke="#0FA34E" stroke-width="2" transform="rotate(75 100 100)" />

  <!-- 90 deg -->
  <line x1="100" y1="30" x2="100" y2="70" stroke="#0FA34E" stroke-width="4" transform="rotate(90 100 100)" />
  <circle cx="100" cy="50" r="4" fill="#C6FF3D" stroke="#0FA34E" stroke-width="1.5" transform="rotate(90 100 100)" />

  <!-- 105 deg -->
  <line x1="100" y1="30" x2="100" y2="70" stroke="#0FA34E" stroke-width="2" transform="rotate(105 100 100)" />

  <!-- 120 deg -->
  <line x1="100" y1="30" x2="100" y2="70" stroke="#0FA34E" stroke-width="2" transform="rotate(120 100 100)" />

  <!-- 135 deg -->
  <line x1="100" y1="30" x2="100" y2="70" stroke="#0FA34E" stroke-width="4" transform="rotate(135 100 100)" />
  <circle cx="100" cy="50" r="4" fill="#C6FF3D" stroke="#0FA34E" stroke-width="1.5" transform="rotate(135 100 100)" />

  <!-- 150 deg -->
  <line x1="100" y1="30" x2="100" y2="70" stroke="#0FA34E" stroke-width="2" transform="rotate(150 100 100)" />

  <!-- 165 deg -->
  <line x1="100" y1="30" x2="100" y2="70" stroke="#0FA34E" stroke-width="2" transform="rotate(165 100 100)" />

  <!-- 180 deg -->
  <line x1="100" y1="30" x2="100" y2="70" stroke="#0FA34E" stroke-width="4" transform="rotate(180 100 100)" />
  <circle cx="100" cy="50" r="4" fill="#C6FF3D" stroke="#0FA34E" stroke-width="1.5" transform="rotate(180 100 100)" />

  <!-- 195 deg -->
  <line x1="100" y1="30" x2="100" y2="70" stroke="#0FA34E" stroke-width="2" transform="rotate(195 100 100)" />

  <!-- 210 deg -->
  <line x1="100" y1="30" x2="100" y2="70" stroke="#0FA34E" stroke-width="2" transform="rotate(210 100 100)" />

  <!-- 225 deg -->
  <line x1="100" y1="30" x2="100" y2="70" stroke="#0FA34E" stroke-width="4" transform="rotate(225 100 100)" />
  <circle cx="100" cy="50" r="4" fill="#C6FF3D" stroke="#0FA34E" stroke-width="1.5" transform="rotate(225 100 100)" />

  <!-- 240 deg -->
  <line x1="100" y1="30" x2="100" y2="70" stroke="#0FA34E" stroke-width="2" transform="rotate(240 100 100)" />

  <!-- 255 deg -->
  <line x1="100" y1="30" x2="100" y2="70" stroke="#0FA34E" stroke-width="2" transform="rotate(255 100 100)" />

  <!-- 270 deg -->
  <line x1="100" y1="30" x2="100" y2="70" stroke="#0FA34E" stroke-width="4" transform="rotate(270 100 100)" />
  <circle cx="100" cy="50" r="4" fill="#C6FF3D" stroke="#0FA34E" stroke-width="1.5" transform="rotate(270 100 100)" />

  <!-- 285 deg -->
  <line x1="100" y1="30" x2="100" y2="70" stroke="#0FA34E" stroke-width="2" transform="rotate(285 100 100)" />

  <!-- 300 deg -->
  <line x1="100" y1="30" x2="100" y2="70" stroke="#0FA34E" stroke-width="2" transform="rotate(300 100 100)" />

  <!-- 315 deg -->
  <line x1="100" y1="30" x2="100" y2="70" stroke="#0FA34E" stroke-width="4" transform="rotate(315 100 100)" />
  <circle cx="100" cy="50" r="4" fill="#C6FF3D" stroke="#0FA34E" stroke-width="1.5" transform="rotate(315 100 100)" />

  <!-- 330 deg -->
  <line x1="100" y1="30" x2="100" y2="70" stroke="#0FA34E" stroke-width="2" transform="rotate(330 100 100)" />

  <!-- 345 deg -->
  <line x1="100" y1="30" x2="100" y2="70" stroke="#0FA34E" stroke-width="2" transform="rotate(345 100 100)" />
</svg>
